name C:\Users\u0150099\Documents\master_thesis\3dpredictsim\Results\debug\Fal_s1_mtjc2_sc_cspx10_oy2_ATx70_MTc2_MTPm_k1_d01_MTJm_nl_MG_exp5_table_d01_PF_Gefen2002_ls146_ig21_wAk5e+04_wa2e+03_wpM1e+03.mot
datacolumns 128
datarows 4
range 0.57029683 0.60451464
endheader
time	pelvis_tilt	pelvis_list	pelvis_rotation	pelvis_tx	pelvis_ty	pelvis_tz	hip_flexion_l	hip_adduction_l	hip_rotation_l	hip_flexion_r	hip_adduction_r	hip_rotation_r	knee_angle_l	knee_angle_r	ankle_angle_l	ankle_angle_r	subtalar_angle_l	subtalar_angle_r	mtj_angle_l	mtj_angle_r	mtp_angle_l	mtp_angle_r	lumbar_extension	lumbar_bending	lumbar_rotation	arm_flex_l	arm_add_l	arm_rot_l	arm_flex_r	arm_add_r	arm_rot_r	elbow_flex_l	elbow_flex_r	pro_sup_l	pro_sup_r	glut_med1_l/activation	glut_med2_l/activation	glut_med3_l/activation	glut_min1_l/activation	glut_min2_l/activation	glut_min3_l/activation	semimem_l/activation	semiten_l/activation	bifemlh_l/activation	bifemsh_l/activation	sar_l/activation	add_long_l/activation	add_brev_l/activation	add_mag1_l/activation	add_mag2_l/activation	add_mag3_l/activation	tfl_l/activation	pect_l/activation	grac_l/activation	glut_max1_l/activation	glut_max2_l/activation	glut_max3_l/activation	iliacus_l/activation	psoas_l/activation	quad_fem_l/activation	gem_l/activation	peri_l/activation	rect_fem_l/activation	vas_med_l/activation	vas_int_l/activation	vas_lat_l/activation	med_gas_l/activation	lat_gas_l/activation	soleus_l/activation	tib_post_l/activation	flex_dig_l/activation	flex_hal_l/activation	tib_ant_l/activation	per_brev_l/activation	per_long_l/activation	per_tert_l/activation	ext_dig_l/activation	ext_hal_l/activation	ercspn_l/activation	intobl_l/activation	extobl_l/activation	glut_med1_r/activation	glut_med2_r/activation	glut_med3_r/activation	glut_min1_r/activation	glut_min2_r/activation	glut_min3_r/activation	semimem_r/activation	semiten_r/activation	bifemlh_r/activation	bifemsh_r/activation	sar_r/activation	add_long_r/activation	add_brev_r/activation	add_mag1_r/activation	add_mag2_r/activation	add_mag3_r/activation	tfl_r/activation	pect_r/activation	grac_r/activation	glut_max1_r/activation	glut_max2_r/activation	glut_max3_r/activation	iliacus_r/activation	psoas_r/activation	quad_fem_r/activation	gem_r/activation	peri_r/activation	rect_fem_r/activation	vas_med_r/activation	vas_int_r/activation	vas_lat_r/activation	med_gas_r/activation	lat_gas_r/activation	soleus_r/activation	tib_post_r/activation	flex_dig_r/activation	flex_hal_r/activation	tib_ant_r/activation	per_brev_r/activation	per_long_r/activation	per_tert_r/activation	ext_dig_r/activation	ext_hal_r/activation	ercspn_r/activation	intobl_r/activation	extobl_r/activation	
          0.57029683	         -2.84054322	          3.19164024	         -5.97850308	          0.75849478	          0.90464611	          0.00279700	         29.91808838	          2.02826428	         -8.66724380	         -5.85905277	         -3.23478676	         -7.86342338	        -11.47482726	        -30.16699867	          7.16869513	         -2.63457397	          3.12762106	         -2.28950055	         -0.12486357	          5.26699317	         24.33139386	         35.57773782	         -3.39939541	         -0.46258325	          2.27579273	         -2.26060714	        -13.45631042	         12.57835742	          5.47671583	        -13.60460009	         18.95291318	         19.63797625	         33.21939650	         86.51662706	         86.51662706	          0.05000041	          0.05000114	          0.06578584	          0.05000135	          0.05000175	          0.05000255	          0.14432950	          0.08427863	          0.08427894	          0.08427902	          0.18432653	          0.05000462	          0.05000415	          0.05000407	          0.05000236	          0.19913702	          0.05532563	          0.05010832	          0.08427667	          0.05000345	          0.05000187	          0.05000118	          0.17657647	          0.17545696	          0.13837282	          0.15822117	          0.12234754	          0.05000033	          0.05000063	          0.05000057	          0.05000051	          0.11196989	          0.07081664	          0.05464016	          0.33890600	          0.05000127	          0.05000084	          0.46659361	          0.06593688	          0.40367323	          0.34335643	          0.68186984	          0.59388036	          0.05000020	          0.18159449	          0.13728754	          0.22962669	          0.05000079	          0.05000036	          0.40090734	          0.10767358	          0.05000170	          0.05000265	          0.05000026	          0.05000032	          0.05000017	          0.05000134	          0.12168625	          0.19115695	          0.05000368	          0.07854829	          0.10795408	          0.40987978	          0.05000889	          0.05000070	          0.05000505	          0.05000484	          0.05000230	          0.05950538	          0.05000067	          0.05000032	          0.05000088	          0.05000193	          0.87464287	          0.22094990	          0.23561798	          0.18814260	          0.36778917	          0.47085538	          0.09160770	          0.89147790	          0.90178196	          0.89986938	          0.05000003	          0.52921924	          0.74580338	          0.05000025	          0.05000010	          0.14205873	          0.05000013	          0.05000092	          0.05000071	
          0.58170276	         -2.85105622	          3.19814514	         -6.43739626	          0.77624184	          0.90227232	          0.00232972	         30.25995176	          1.87856341	         -8.61923958	         -7.38430971	         -3.57005313	         -8.22425284	        -12.32069823	        -29.10844384	          6.66454133	         -3.69322081	          3.05817921	         -2.40367729	          0.39076925	          4.84780880	         24.60424013	         37.18803351	         -3.30191280	         -0.53970140	          2.38621780	         -3.12734025	        -13.44985387	         12.47629801	          5.45835707	        -13.55195746	         19.04994155	         18.48942052	         34.69765955	         86.51662706	         86.51662706	          0.05000367	          0.05008481	          0.05950581	          0.05003076	          0.05945024	          0.05951578	          0.12127524	          0.07081677	          0.07081681	          0.07081690	          0.16051618	          0.05000085	          0.05000052	          0.05000050	          0.05000040	          0.25274496	          0.09917047	          0.05003322	          0.07081671	          0.05000184	          0.05000061	          0.09133173	          0.14896912	          0.15542455	          0.11627023	          0.13294926	          0.10280641	          0.05000006	          0.05000009	          0.05000008	          0.05000007	          0.09408470	          0.05950502	          0.05950492	          0.35507859	          0.05950496	          0.05950607	          0.47607947	          0.09266970	          0.44517681	          0.28851161	          0.68031700	          0.63397548	          0.05000017	          0.22208963	          0.12131406	          0.19294999	          0.05000087	          0.05000034	          0.33687019	          0.09065986	          0.05000172	          0.05000480	          0.05000053	          0.05000053	          0.05000022	          0.05000093	          0.18626461	          0.16062453	          0.05002125	          0.18829537	          0.14292969	          0.34441047	          0.05000284	          0.05000085	          0.05001884	          0.05000964	          0.05000719	          0.05000040	          0.08667403	          0.05000026	          0.05000059	          0.05000233	          0.88414742	          0.19099191	          0.20156900	          0.15822194	          0.36612157	          0.47821752	          0.09324226	          0.84896014	          0.89059692	          0.83163358	          0.05000003	          0.51499238	          0.63429921	          0.05000022	          0.05000035	          0.11936719	          0.05000007	          0.06941928	          0.05117029	
          0.59310870	         -2.86130739	          3.20177213	         -6.86355042	          0.79436054	          0.89982535	          0.00183795	         30.65586160	          1.74271444	         -8.53574150	         -8.97286364	         -3.90272516	         -8.55066772	        -13.93003837	        -27.93421280	          5.74365166	         -4.92749562	          2.96496724	         -2.49362517	          1.01410153	          4.38492812	         24.78607538	         38.88174914	         -3.19756661	         -0.63633355	          2.49517665	         -4.09874907	        -13.46046344	         12.47132340	          5.33550261	        -13.50538950	         19.09434208	         17.56349844	         36.22601283	         86.51662706	         86.51662706	          0.09696108	          0.05000093	          0.05000148	          0.05000109	          0.05000130	          0.05000989	          0.10190350	          0.05950499	          0.05950500	          0.05950508	          0.13487667	          0.07081957	          0.05949968	          0.05950510	          0.05950497	          0.34664671	          0.10030079	          0.05008033	          0.05950509	          0.05000490	          0.09166569	          0.27547116	          0.12517389	          0.13059824	          0.09769821	          0.11171340	          0.08638508	          0.12265391	          0.05000043	          0.05000044	          0.05000045	          0.07905622	          0.05000010	          0.05000000	          0.38589783	          0.05000015	          0.05000116	          0.52864375	          0.17869983	          0.41615904	          0.34567028	          0.79859941	          0.79207817	          0.05000008	          0.20433530	          0.10193616	          0.16212952	          0.05000043	          0.05000013	          0.28306099	          0.07618048	          0.05000113	          0.05000423	          0.05000044	          0.05000052	          0.05000020	          0.05000080	          0.15651228	          0.30911446	          0.05000104	          0.18870654	          0.15048552	          0.28939795	          0.05000248	          0.05000057	          0.05000278	          0.05000188	          0.05000079	          0.05000141	          0.17992109	          0.05000007	          0.05000033	          0.05000096	          0.80079223	          0.18146093	          0.18374767	          0.14385161	          0.42556046	          0.60917368	          0.07881994	          0.81106832	          0.88767174	          0.69879427	          0.05000001	          0.47230729	          0.53298030	          0.05000023	          0.05000012	          0.10030024	          0.05000001	          0.05833100	          0.05000053	
          0.60451464	         -2.87131079	          3.20033053	         -7.25174720	          0.81285436	          0.89738356	          0.00130746	         31.02724673	          1.65176647	         -8.40658826	        -10.59448907	         -4.23795545	         -8.83722070	        -16.26357582	        -26.68452332	          4.71468982	         -6.39233335	          2.86239581	         -2.52657283	          1.86222059	          3.85817062	         24.90145654	         40.69042107	         -3.08251640	         -0.74936911	          2.60447086	         -5.16927055	        -13.47659195	         12.48438052	          5.10641553	        -13.48292283	         19.14069327	         16.85977026	         37.80483786	         86.51662706	         86.51662706	          0.16007923	          0.20041684	          0.27784779	          0.20051182	          0.13757019	          0.21043656	          0.08562611	          0.05000007	          0.05000007	          0.05000013	          0.11333283	          0.05950787	          0.05000118	          0.05000055	          0.05000038	          0.39130823	          0.08427970	          0.05952417	          0.05000024	          0.05000041	          0.16571792	          0.38086053	          0.10517957	          0.10973742	          0.08209263	          0.09393995	          0.15212480	          0.10306198	          0.07491212	          0.06854429	          0.05950531	          0.06642831	          0.06483721	          0.05950497	          0.36320359	          0.05000016	          0.05000014	          0.65746512	          0.20972134	          0.42508963	          0.62830498	          0.81615934	          0.66555669	          0.09346759	          0.19213385	          0.08565353	          0.13623205	          0.05000090	          0.05000115	          0.23784671	          0.06401238	          0.05000263	          0.05000116	          0.05000015	          0.05000027	          0.05000008	          0.05000122	          0.13151254	          0.40383006	          0.19668429	          0.15862496	          0.12644841	          0.28242238	          0.05953810	          0.05000046	          0.05009698	          0.05013888	          0.10038748	          0.05000027	          0.30714933	          0.08085636	          0.05000448	          0.05020147	          0.68211773	          0.15247570	          0.15439712	          0.12087378	          0.38020546	          0.51187027	          0.10699896	          0.68151372	          0.86873375	          0.58717344	          0.06628240	          0.45967835	          0.44784540	          0.05000013	          0.05000003	          0.08427892	          0.05531420	          0.05003221	          0.05000020	
